<svg xmlns="http://www.w3.org/2000/svg" width="132" height="132" viewBox="0 0 132 132"><defs><style>.a{fill:#1a873c;}</style></defs><g transform="translate(-65.242 -65.242)"><path class="a" d="M828,546a66,66,0,1,0,66,66h0a65.989,65.989,0,0,0-65.983-66Zm0,122.567a56.573,56.573,0,1,1,56.573-56.573V612A56.635,56.635,0,0,1,828,668.584Zm21.951-77.439-31.74,31.746-12.166-12.167a4.712,4.712,0,0,0-6.661,6.666l15.494,15.493a4.692,4.692,0,0,0,3.333,1.387,6.2,6.2,0,0,0,.9-.083,4.634,4.634,0,0,0,2.43-1.287l35.079-35.074a4.719,4.719,0,0,0-6.665-6.681Z" transform="translate(-696.758 -480.758)"/></g></svg>